<svg xmlns="http://www.w3.org/2000/svg" width="28" height="28" viewBox="0 0 28 28">
  <path id="Icon_awesome-linkedin" data-name="Icon awesome-linkedin" d="M26,2.25H1.994A2.009,2.009,0,0,0,0,4.269V28.231A2.009,2.009,0,0,0,1.994,30.25H26a2.014,2.014,0,0,0,2-2.019V4.269A2.014,2.014,0,0,0,26,2.25Zm-17.538,24H4.313V12.888H8.469V26.25ZM6.387,11.063A2.406,2.406,0,1,1,8.794,8.656a2.407,2.407,0,0,1-2.406,2.406ZM24.019,26.25h-4.15v-6.5c0-1.55-.031-3.544-2.156-3.544-2.163,0-2.494,1.688-2.494,3.431V26.25h-4.15V12.888H15.05v1.825h.056a4.371,4.371,0,0,1,3.931-2.156c4.2,0,4.981,2.769,4.981,6.369Z" transform="translate(0 -2.25)" fill="#fff"/>
</svg>
