<svg xmlns="http://www.w3.org/2000/svg" width="28.718" height="28" viewBox="0 0 28.718 28">
  <path id="Icon_awesome-github" data-name="Icon awesome-github" d="M9.605,23.108c0,.116-.133.208-.3.208-.191.017-.324-.075-.324-.208,0-.116.133-.208.3-.208C9.455,22.882,9.605,22.975,9.605,23.108Zm-1.8-.261c-.041.116.075.249.249.284a.272.272,0,0,0,.359-.116c.035-.116-.075-.249-.249-.3A.3.3,0,0,0,7.8,22.848Zm2.559-.1c-.168.041-.284.151-.266.284.017.116.168.191.342.151s.284-.151.266-.266S10.532,22.732,10.364,22.749ZM14.173.563A13.883,13.883,0,0,0,0,14.69,14.516,14.516,0,0,0,9.814,28.539c.741.133,1-.324,1-.7,0-.359-.017-2.339-.017-3.555,0,0-4.053.868-4.9-1.725,0,0-.66-1.685-1.61-2.119,0,0-1.326-.909.093-.892a3.056,3.056,0,0,1,2.235,1.494,3.061,3.061,0,0,0,4.221,1.21,3.218,3.218,0,0,1,.926-1.951c-3.237-.359-6.5-.828-6.5-6.4a4.388,4.388,0,0,1,1.366-3.41,5.47,5.47,0,0,1,.151-3.931c1.21-.376,3.995,1.563,3.995,1.563a13.678,13.678,0,0,1,7.272,0s2.785-1.945,3.995-1.563a5.468,5.468,0,0,1,.151,3.931A4.5,4.5,0,0,1,23.68,13.9c0,5.587-3.41,6.033-6.647,6.4a3.424,3.424,0,0,1,.984,2.686c0,1.951-.017,4.366-.017,4.84,0,.376.266.834,1,.7A14.382,14.382,0,0,0,28.718,14.69,14.2,14.2,0,0,0,14.173.563ZM5.628,20.532c-.075.058-.058.191.041.3.093.093.226.133.3.058.075-.058.058-.191-.041-.3C5.836,20.5,5.7,20.456,5.628,20.532ZM5,20.063c-.041.075.017.168.133.226a.172.172,0,0,0,.249-.041c.041-.075-.017-.168-.133-.226C5.136,19.987,5.043,20,5,20.063Zm1.876,2.061c-.093.075-.058.249.075.359.133.133.3.151.376.058.075-.075.041-.249-.075-.359C7.127,22.049,6.954,22.031,6.878,22.124Zm-.66-.851c-.093.058-.093.208,0,.342s.249.191.324.133a.264.264,0,0,0,0-.359C6.461,21.255,6.311,21.2,6.218,21.273Z" transform="translate(0 -0.563)" fill="#fff"/>
</svg>
